<svg width="139" height="139" viewBox="0 0 139 139" fill="none" xmlns="http://www.w3.org/2000/svg">
<path d="M125.335 107.65H112.687L114.795 128.825H123.227L125.335 107.65Z" fill="#EDF8EC"/>
<path d="M121.119 107.65H112.687L114.795 128.825H119.011L121.119 107.65Z" fill="white"/>
<path d="M123.227 130.519H114.794C113.951 130.519 113.319 129.884 113.319 129.037L111.21 107.862C111.21 107.438 111.21 107.015 111.632 106.591C111.843 106.168 112.265 106.168 112.897 106.168H125.546C125.967 106.168 126.389 106.38 126.81 106.591C127.021 107.015 127.232 107.438 127.232 107.862L125.124 129.037C124.702 129.884 123.859 130.519 123.227 130.519ZM116.059 127.343H121.54L123.227 109.344H114.162L116.059 127.343Z" fill="#50B946"/>
<path d="M55.5573 107.65H42.9087L45.0168 128.825H53.4492L55.5573 107.65Z" fill="#EDF8EC"/>
<path d="M51.3411 107.65H42.9087L45.0168 128.825H49.233L51.3411 107.65Z" fill="white"/>
<path d="M53.4488 130.519H45.0164C44.1732 130.519 43.5407 129.884 43.5407 129.037L41.4326 107.862C41.4326 107.438 41.4326 107.015 41.8542 106.591C42.0651 106.168 42.4867 106.168 43.1191 106.168H55.7678C56.1894 106.168 56.611 106.38 57.0326 106.591C57.2434 107.015 57.4542 107.438 57.4542 107.862L55.3461 129.037C55.1353 129.884 54.2921 130.519 53.4488 130.519ZM46.4921 127.343H51.9732L53.6596 109.344H44.5948L46.4921 127.343Z" fill="#50B946"/>
<path d="M119.011 137.506C124.833 137.506 129.552 132.766 129.552 126.919C129.552 121.072 124.833 116.332 119.011 116.332C113.19 116.332 108.471 121.072 108.471 126.919C108.471 132.766 113.19 137.506 119.011 137.506Z" fill="white"/>
<path d="M123.86 117.602C124.703 119.085 125.124 120.779 125.124 122.684C125.124 128.613 120.487 133.272 114.584 133.272C112.687 133.272 111 132.848 109.524 132.001C111.211 135.389 114.795 137.507 118.8 137.507C124.703 137.507 129.341 132.848 129.341 126.919C129.551 122.896 127.233 119.296 123.86 117.602Z" fill="#EDF8EC"/>
<path d="M119.011 129.037C120.175 129.037 121.119 128.089 121.119 126.919C121.119 125.75 120.175 124.802 119.011 124.802C117.847 124.802 116.903 125.75 116.903 126.919C116.903 128.089 117.847 129.037 119.011 129.037Z" fill="#50B946"/>
<path d="M119.011 138.989C112.265 138.989 106.784 133.483 106.784 126.707C106.784 119.931 112.265 114.426 119.011 114.426C125.757 114.426 131.238 119.931 131.238 126.707C131.027 133.483 125.546 138.989 119.011 138.989ZM119.011 117.814C114.163 117.814 109.946 121.837 109.946 126.919C109.946 131.789 113.952 136.024 119.011 136.024C123.86 136.024 128.076 132.001 128.076 126.919C127.865 121.837 123.86 117.814 119.011 117.814Z" fill="#50B946"/>
<path d="M49.2329 137.506C55.0543 137.506 59.7735 132.766 59.7735 126.919C59.7735 121.072 55.0543 116.332 49.2329 116.332C43.4115 116.332 38.6924 121.072 38.6924 126.919C38.6924 132.766 43.4115 137.506 49.2329 137.506Z" fill="white"/>
<path d="M54.2922 117.602C55.1354 119.085 55.557 120.779 55.557 122.684C55.557 128.613 50.9192 133.272 45.0165 133.272C43.1192 133.272 41.4327 132.848 39.957 132.001C41.6435 135.389 45.2273 137.507 49.2327 137.507C55.1354 137.507 59.7733 132.848 59.7733 126.919C59.7733 122.896 57.6652 119.296 54.2922 117.602Z" fill="#EDF8EC"/>
<path d="M49.2331 129.037C50.3974 129.037 51.3412 128.089 51.3412 126.919C51.3412 125.75 50.3974 124.802 49.2331 124.802C48.0688 124.802 47.125 125.75 47.125 126.919C47.125 128.089 48.0688 129.037 49.2331 129.037Z" fill="#50B946"/>
<path d="M49.2334 138.989C42.4874 138.989 37.0063 133.483 37.0063 126.707C37.0063 119.931 42.4874 114.426 49.2334 114.426C55.9793 114.426 61.4604 119.931 61.4604 126.707C61.4604 133.483 55.9793 138.989 49.2334 138.989ZM49.2334 117.814C44.3847 117.814 40.1685 121.837 40.1685 126.919C40.1685 131.789 44.1739 136.024 49.2334 136.024C54.082 136.024 58.2982 132.001 58.2982 126.919C58.2982 121.837 54.2928 117.814 49.2334 117.814Z" fill="#50B946"/>
<path d="M131.659 109.344H38.0594C35.5297 109.344 33.4216 107.862 32.5783 105.533C31.7351 103.203 32.5783 100.662 34.4756 98.9684L40.8 93.8864C41.0108 93.6746 41.4324 93.4629 41.854 93.4629H121.962C122.805 93.4629 123.649 94.0981 123.649 95.1569C123.649 96.0039 123.016 96.8509 121.962 96.8509H42.4864L36.5837 101.721C35.5297 102.568 35.5297 103.839 35.7405 104.686C35.9513 105.533 36.7945 106.38 38.2702 106.38H131.659C132.503 106.38 133.346 107.015 133.346 108.074C133.346 109.132 132.503 109.344 131.659 109.344Z" fill="#50B946"/>
<path d="M42.0652 96.6392C41.4328 96.6392 40.8004 96.2157 40.5896 95.3687L19.5085 5.58725C19.2977 4.31676 18.2436 3.46976 16.9788 3.46976H2.01119C0.957139 3.46976 0.324707 2.83452 0.324707 1.77578C0.324707 0.717033 0.957139 0.0817871 2.01119 0.0817871H16.9788C19.7193 0.0817871 22.0382 1.98752 22.6707 4.52851L43.5409 94.5217C43.7517 95.3687 43.1193 96.2157 42.2761 96.4274C42.2761 96.6392 42.0652 96.6392 42.0652 96.6392Z" fill="#50B946"/>
<path d="M122.173 94.945H42.0649L27.3081 31.4204H136.93L122.173 94.945Z" fill="#EDF8EC"/>
<path d="M110.368 84.3576H39.5351L27.3081 31.4204H125.968L114.373 81.1813C113.951 83.0871 112.265 84.3576 110.368 84.3576Z" fill="white"/>
<path d="M122.173 96.6393H42.0654C41.4329 96.6393 40.5897 96.2158 40.5897 95.3688L25.8329 31.8442C25.6221 31.4207 25.8329 30.7855 26.0437 30.5737C26.2545 30.1502 26.887 29.9385 27.3086 29.9385H136.93C137.352 29.9385 137.773 30.1502 138.195 30.5737C138.406 30.9972 138.617 31.4207 138.406 31.8442L123.649 95.3688C123.438 96.2158 122.806 96.6393 122.173 96.6393ZM43.1194 93.4631H120.698L134.822 33.1147H29.2059L43.1194 93.4631Z" fill="#50B946"/>
<path d="M105.097 96.6391H58.9296C58.0863 96.6391 57.4539 96.0039 57.4539 95.1569L49.0215 31.6323C49.0215 31.2088 49.0215 30.7853 49.4431 30.3618C49.6539 29.9383 50.0755 29.7266 50.708 29.7266H113.951C114.373 29.7266 114.794 29.9383 115.216 30.3618C115.427 30.7853 115.638 31.2088 115.638 31.6323L107.205 95.1569C106.573 96.0039 105.94 96.6391 105.097 96.6391ZM60.1945 93.4629H103.621L111.843 33.1145H52.1836L60.1945 93.4629Z" fill="#50B946"/>
<path d="M89.708 96.6393H74.3188C73.4755 96.6393 72.8431 96.0041 72.8431 95.1571L70.1025 31.6325C70.1025 31.209 70.3134 30.7855 70.5242 30.362C70.735 30.1502 71.1566 29.9385 71.5782 29.9385H92.6593C93.0809 29.9385 93.5025 30.1502 93.7134 30.362C93.9242 30.5737 94.135 30.9972 94.135 31.6325L91.3944 95.1571C91.1836 96.0041 90.5512 96.6393 89.708 96.6393ZM75.7944 93.4631H88.2323L90.9728 33.1147H73.2647L75.7944 93.4631Z" fill="#50B946"/>
<path d="M127.022 75.4644H37.0053C36.1621 75.4644 35.3188 74.8291 35.3188 73.7704C35.3188 72.9234 35.9513 72.0764 37.0053 72.0764H127.022C127.865 72.0764 128.708 72.7117 128.708 73.7704C128.497 74.8291 127.865 75.4644 127.022 75.4644Z" fill="#50B946"/>
<path d="M131.871 54.2896H32.1572C31.3139 54.2896 30.4707 53.6544 30.4707 52.5956C30.4707 51.7486 31.1031 50.9016 32.1572 50.9016H131.871C132.714 50.9016 133.557 51.5369 133.557 52.5956C133.557 53.6544 132.714 54.2896 131.871 54.2896Z" fill="#50B946"/>
<path d="M69.682 10.4572C72.0106 10.4572 73.8983 8.56119 73.8983 6.22228C73.8983 3.88337 72.0106 1.9873 69.682 1.9873C67.3535 1.9873 65.4658 3.88337 65.4658 6.22228C65.4658 8.56119 67.3535 10.4572 69.682 10.4572Z" fill="white"/>
<path d="M69.681 11.9397C66.5189 11.9397 63.7783 9.39873 63.7783 6.01075C63.7783 2.62277 66.3081 0.0817871 69.681 0.0817871C73.054 0.0817871 75.5837 2.62277 75.5837 6.01075C75.5837 9.39873 73.054 11.9397 69.681 11.9397ZM69.681 3.46977C68.2053 3.46977 66.9405 4.74026 66.9405 6.2225C66.9405 7.70474 68.2053 8.97523 69.681 8.97523C71.1567 8.97523 72.4215 7.70474 72.4215 6.2225C72.4215 4.74026 71.1567 3.46977 69.681 3.46977Z" fill="#50B946"/>
<path d="M116.27 18.9272C118.599 18.9272 120.487 17.0312 120.487 14.6922C120.487 12.3533 118.599 10.4573 116.27 10.4573C113.942 10.4573 112.054 12.3533 112.054 14.6922C112.054 17.0312 113.942 18.9272 116.27 18.9272Z" fill="white"/>
<path d="M116.271 20.4097C113.109 20.4097 110.369 17.8687 110.369 14.4807C110.369 11.0927 112.898 8.55176 116.271 8.55176C119.434 8.55176 122.174 11.0927 122.174 14.4807C122.174 17.8687 119.434 20.4097 116.271 20.4097ZM116.271 11.9397C114.796 11.9397 113.531 13.2102 113.531 14.6925C113.531 16.1747 114.796 17.4452 116.271 17.4452C117.747 17.4452 119.012 16.1747 119.012 14.6925C118.801 13.2102 117.536 11.9397 116.271 11.9397Z" fill="#50B946"/>
<path d="M6.22696 53.4426C8.55551 53.4426 10.4432 51.5465 10.4432 49.2076C10.4432 46.8687 8.55551 44.9727 6.22696 44.9727C3.89841 44.9727 2.01074 46.8687 2.01074 49.2076C2.01074 51.5465 3.89841 53.4426 6.22696 53.4426Z" fill="white"/>
<path d="M6.22741 55.1362C3.06525 55.1362 0.324707 52.5953 0.324707 49.2073C0.324707 46.0311 2.85444 43.2783 6.22741 43.2783C9.38957 43.2783 11.9193 45.8193 11.9193 49.2073C11.9193 52.3835 9.38957 55.1362 6.22741 55.1362ZM6.22741 46.6663C4.75173 46.6663 3.48687 47.9368 3.48687 49.419C3.48687 50.9013 4.75173 52.1718 6.22741 52.1718C7.70309 52.1718 8.96795 50.9013 8.96795 49.419C8.75714 47.725 7.49228 46.6663 6.22741 46.6663Z" fill="#50B946"/>
<path d="M20.9838 87.3225C23.3123 87.3225 25.2 85.4264 25.2 83.0875C25.2 80.7486 23.3123 78.8525 20.9838 78.8525C18.6552 78.8525 16.7676 80.7486 16.7676 83.0875C16.7676 85.4264 18.6552 87.3225 20.9838 87.3225Z" fill="white"/>
</svg>
