<svg width="180" height="150" viewBox="0 0 180 150" fill="none" xmlns="http://www.w3.org/2000/svg"><path fill="#fff" d="M0 0h180v150H0z"/><rect x="97" y="70" width="53" height="74" rx="4" fill="#fff"/><path d="M73.87 24.6V47.2c-.45 1.52-1.54 2.54-3.42 3.2l-.16.08a11.91 11.91 0 00-2.14 1.4l-.2.18a13.76 13.76 0 00-2.68 3.44c-.22.42-.45.92-.62 1.44a12.41 12.41 0 00-.65 4.01v69.58c0 1.9 1.56 3.46 3.46 3.46h26.48c1.91 0 3.47-1.56 3.47-3.46V60.96a11.66 11.66 0 00-1.27-5.46 11.58 11.58 0 00-5.11-5.08 4.89 4.89 0 01-2.36-2 4.24 4.24 0 01-.3-.67V13.17h-.02l.01-.12V5h-14.5v8.05l.02.12h-.02V24.6h.01zm2.94 2.94h8.62v10.42H76.8V27.54zm17.66 87.02H75.38V79h19.1v35.55zm-8.99-66.17c.16.53.37 1.04.64 1.5a7.66 7.66 0 003.64 3.2 8.78 8.78 0 013.76 3.74l.15.34a8.92 8.92 0 01.8 3.8v15.1H72.45v41.43h22.04v13.04c0 .29-.24.53-.52.53H67.48a.52.52 0 01-.53-.53V60.96a9.37 9.37 0 01.97-4.13 10.46 10.46 0 011.71-2.3l.27-.25.17-.15c.3-.25.64-.5 1-.7.15-.1.32-.2.48-.28 2.81-1.03 4.57-2.84 5.23-5.38l.04-.18v-6.7h8.62v7.29l.04.2zM76.81 16.1h8.62v8.49H76.8V16.1zm0-3.06v-5.1h8.62v5.22H76.8l.01-.12z" fill="#E9EAEC"/><path d="M81.12 56.2c0 .82.66 1.48 1.47 1.48 1.84 0 3.23.51 4.12 1.53 1.7 1.94 1.29 5.22 1.29 5.24l-.01 6.51a1.47 1.47 0 002.94 0v-6.21c.08-.74.4-4.71-2-7.46-1.47-1.7-3.6-2.55-6.34-2.55-.81 0-1.47.65-1.47 1.47z" fill="#E9EAEC"/><g clip-path="url(#clip0)"><path d="M115.13 87h-1.27v48.33c0 .95.2.95.49.95h.46c2.27 0 4.77 0 7.39-.03h16.85c2.88 0 5.61 0 8.08.03h.46c.3 0 .5 0 .5-.95V87.01h-2.17c-.68 0-.74-.23-.89-.12-.17.12.03.32-.23 1.21l-.08.32-.7 2.22c-.74 2.41-1.78 3.65-3.36 4.34-1.38.6-2.87.6-4.94.6h-9.47c-2.07 0-3.56 0-4.94-.6-1.61-.72-2.65-1.96-3.37-4.37l-.69-2.22-.08-.29c-.29-.92-.09-1.12-.26-1.23-.14-.1-.2.11-.9.11-.66.03-.34.03-.89.03zm-3.43-4.34H116c1.6-.03 2.44-.03 3.4.64 1.03.74 1.31 1.64 1.89 3.54l.09.28.69 2.22c.31 1.04.6 1.5.97 1.67.6.26 1.7.26 3.22.26h7.66v.03h1.84c1.52 0 2.61 0 3.19-.26.37-.17.69-.63 1-1.67l.7-2.22.08-.28c.57-1.88.86-2.77 1.9-3.52.95-.66 1.81-.66 3.4-.63h6.43v52.64c0 5.35-2.1 5.32-4.91 5.27h-.4c-2.48 0-5.24-.03-8.09-.03H122.2c-2.59 0-5.09 0-7.36.03h-.4c-2.82.05-4.92.08-4.92-5.27v-52.7h2.18z" fill="#E9EAEC"/><path d="M153 96.04h-43.36v1.64H153v-1.64z" fill="#fff"/><path d="M115.96 78h-4.66v5.24h4.66V78z" fill="#E9EAEC"/><path fill-rule="evenodd" clip-rule="evenodd" d="M117.08 83.2l4.63 5.13V78h-4.63v5.2z" fill="#E9EAEC"/><path d="M127.58 78.06h-4.66v13.26h4.66V78.06zM133.36 78.06h-4.66v13.26h4.66V78.06zM139.16 78h-4.65v13.27h4.66V78z" fill="#E9EAEC"/><path fill-rule="evenodd" clip-rule="evenodd" d="M140.35 88.65l4.66-5.41v-5.21h-4.66v10.62z" fill="#E9EAEC"/><path d="M150.79 78.03h-4.66v5.2h4.66v-5.2z" fill="#E9EAEC"/><path d="M113.86 86.32h2.16c.29 0 .43-.06.52-.09.25-.11.4-.17.68.06.3.2.3.34.32.66 0 .14 0 .37.14.8l.03.1.06.22.7 2.22a8.75 8.75 0 001.26 2.65 4.5 4.5 0 001.8 1.38c.64.29 1.3.43 2.05.49.78.08 1.67.08 2.67.08H135.75c1.01 0 1.9 0 2.68-.08.75-.09 1.4-.23 2.04-.5a4.5 4.5 0 001.81-1.37c.52-.66.92-1.5 1.27-2.65l.66-2.13.03-.09.09-.31c.14-.44.14-.67.14-.8 0-.33 0-.5.31-.7.3-.2.44-.14.7-.06.08.03.22.09.51.09h2.71v48.87c0 .6-.09.95-.26 1.15-.26.34-.52.34-.8.31H114.4c-.3 0-.55 0-.8-.31-.15-.2-.27-.55-.27-1.15V86.32h.52zm1.27 1.06h-.72v48.18h33.12V87.41H145.94c-.2 0-.35-.03-.47-.03-.02.2-.05.43-.17.75l-.05.23-.03.09-.7 2.21a9.06 9.06 0 01-1.46 3 5.53 5.53 0 01-2.22 1.7c-.74.34-1.52.48-2.38.57-.75.06-1.67.06-2.7.06h-9.49c-1.04 0-1.96 0-2.8-.09a8.06 8.06 0 01-2.38-.57 5.88 5.88 0 01-2.22-1.73 9.08 9.08 0 01-1.46-3l-.66-2.21-.09-.29-.03-.08c-.09-.3-.11-.52-.14-.67-.12 0-.29.03-.46.03h-.9zm0-4.31h-5.03v52.09c0 4.31 1.46 4.72 3.53 4.72h34.74c2.07 0 3.54-.4 3.54-4.72V83.07H145.06c-.31 0-.6.02-.86.05a2.97 2.97 0 00-2.19 1.61c-.25.52-.46 1.18-.74 2.1l-.09.3-.17.51-.52 1.7c-.17.55-.34.98-.52 1.27-.23.37-.46.6-.77.72-.35.14-.84.23-1.44.25-.58.1-1.24.1-2.01.1h-9.49c-.78 0-1.44 0-1.99-.04-.6-.06-1.1-.11-1.44-.29a1.66 1.66 0 01-.77-.72 6.65 6.65 0 01-.52-1.3l-.6-1.98-.18-.51c-.29-.93-.49-1.59-.75-2.1-.23-.47-.48-.81-.95-1.13-.6-.43-1.2-.52-2.1-.54H115.13zm29.04-1.1h.8-.8zm-32.47 0h5.38c1.64.12 2.65.46 3.05 1.1.37.34.63.71.9 1.18.22.46.42 1.03.62 1.72l.18.52.08.32.7 2.21c.1.5.25.8.37 1.04.08.17.2.26.28.29.23.11.6.14 1.07.17.55.06 1.18.06 1.92.06h8.2v.03h1.3c.74 0 1.38 0 1.92-.03.5-.03.84-.09 1.07-.18.08-.02.17-.14.28-.28.15-.23.3-.58.44-1.04l.69-2.22.17-.51c.26-.87.46-1.5.72-2.05a4.12 4.12 0 014-2.3H153.02v53.19c0 5.32-1.93 5.81-4.63 5.81h-34.77c-2.7 0-4.63-.52-4.63-5.81V81.97h2.7z" fill="#fff"/><path d="M151.94 96.76h-41.85v1.64h41.85v-1.64z" fill="#E9EAEC"/></g><path d="M70 78c0-.5-4.5-22.5-7-26.5l-1-.5-1.5 1.5L57 97c1.5-.33 5.1-1.5 7.5-3.5 3-2.5 5.5-15 5.5-15.5z" fill="#fff"/><path d="M50.03 140h10.55c.8 0 1.44-.65 1.44-1.45 0-.8-.64-1.46-1.44-1.46h-9.11v-27.33a9.54 9.54 0 013.8-7.6l5.38-4.04c.07-.06.14-.12.2-.2C66.9 93.98 71 86.4 71 77.7c0-2.48-.34-4.94-1-7.26L64.8 50H35.22L30 70.4c-.67 2.36-1.01 4.82-1.01 7.3 0 8.7 4.1 16.28 10.15 20.23l.2.2 5.37 4.04a9.52 9.52 0 013.8 7.59v27.33h-9.1c-.8 0-1.44.66-1.44 1.46 0 .8.65 1.45 1.44 1.45H50.03zM32.79 71.17l4.66-18.26h25.1l4.68 18.29.33 1.32a14.3 14.3 0 00-16.74 1.13 14.3 14.3 0 00-18.62.28c.14-.93.33-1.85.59-2.76zm34.12 4.44a11.43 11.43 0 01-13.88 0 11.4 11.4 0 0113.88 0zm-35 2.67l1.64-1.65a11.47 11.47 0 015.2-3.01c3.94-1.04 8.18.11 11.05 3.01a14.27 14.27 0 0018.3 1.7c-.28 10.87-7.7 19.61-16.8 19.61h-2.6c-9.11 0-16.54-8.77-16.8-19.66zm15.66 22.53c.37.02.75.04 1.14.04h2.59c.38 0 .76-.02 1.13-.04a12.11 12.11 0 00-2.43 3.22 12.2 12.2 0 00-2.43-3.22z" fill="#E9EAEC"/><path d="M50 94.5c0-.82-.63-1.49-1.4-1.49-5.14 0-9.59-4.45-10.83-10.82a1.4 1.4 0 00-1.66-1.16c-.76.17-1.24.96-1.08 1.77 1.52 7.77 7.1 13.2 13.58 13.2.76 0 1.39-.67 1.39-1.5z" fill="#E9EAEC"/><defs><clipPath id="clip0"><path fill="#fff" transform="translate(109 78)" d="M0 0h44v63H0z"/></clipPath></defs></svg>